/* XPM */
static char *d262bd2eed2d434bad777aa11f147f46DXSXSJ3wVGzL9eRe[] = {
/* columns rows colors chars-per-pixel */
"50 50 59 1 ",
"  c #96DDF9",
". c #1D699A",
"X c #4EADDF",
"o c #6FC2EB",
"O c #42A1D5",
"+ c #64BBE7",
"@ c #2373A5",
"# c #186394",
"$ c #46A6DB",
"% c #89D4F4",
"& c #03203E",
"* c #59B4E3",
"= c #409CD0",
"- c #3893C7",
"; c #92DAF7",
": c #8ED7F6",
"> c #54B0E1",
", c #1F6EA0",
"< c #165F90",
"1 c #2F85B8",
"2 c #79C9EE",
"3 c #84D0F2",
"4 c #49A9DD",
"5 c #5EB7E5",
"6 c #0B365A",
"7 c #2A7CAF",
"8 c #74C6EC",
"9 c #7FCCEF",
"0 c #2C80B3",
"q c #348DC1",
"w c #6BC0E9",
"e c #3289BC",
"r c #2678AA",
"t c #072C4E",
"y c #3C98CC",
"u c #14537F",
"i c #5FB1DB",
"p c #052545",
"a c #145886",
"s c #0E3E64",
"d c #4BA0CE",
"f c #1A5C89",
"g c #54ACDA",
"h c #0E436B",
"j c #154D77",
"k c #3F95C6",
"l c #104871",
"z c #4EA6D6",
"x c #3B8FBF",
"c c #5CA7CE",
"v c #236590",
"b c #6BBBE3",
"n c #3279A4",
"m c #77C2E5",
"M c #4D97C0",
"N c #6BB4D8",
"B c #3684B2",
"V c #468BB2",
"C c #336F94",
/* pixels */
"                 :%%     ;+>X=--y7-k0@d%  2+95w3o9",
"                 o>w;; %: 9+4$$>g7eg-ki3  ;: 8*:%w",
"  ; ; ; ; ;  ;%3:2owo8::; :*Oqqdkr,1$53      %oo:%",
"           %w82++w;:+*o9::8k0,#.,,,c*4Xw:  893w%33",
"223        8>Xw:%;%924XX>8g,.@#.cm=iOy$4o23+X+8w23",
"yOO2 ;bb%: ;%9% %35>d1z4XX1,,@1-45Oeq=w>$y++$$X*% ",
"yyqOo9dek+92;;;38o>5$O$4*>O=q0e$$$Oe1zw5+b2*5o3;  ",
"Xwi1O++q7-=4+5>59;%3o>4$ykr@.#,O4O0@1-*5im9+: ;999",
"**bdXw%z07r=OOO-g% :;%ooNNcke11>4=0#0g25o%33%w54$g",
"%% ;%9;9wbMx=g=gX*3++:w5888+ziiiOMMMcw3%%854X==4z7",
"*533:   :+*>528;3ww55%35***83%:39:   %o+>17xy1=o9g",
"wo+X*8%; 983229; ;;;;  ;;;;;         ;;3oiNobm3; ;",
"+9w2XOi3       ;;                 ;9%   %%o5oi9;  ",
"*5+3999%9o:25o:+w3;:%%93;   ;    :w5+:   ;9i1,xm  ",
"3::2o2+=-o:3oww+9 95X=7eio::; :oo9o3:229%%83mcc%  ",
":%9g-kgqd5ggN>OBi%+=e.##@y>>w;:>O+zb9o*+*>$g%     ",
"5g1rB,nrx10@@e5kg+y77uf0eyq=X% 3zbxrqOXo85dd9o9w3%",
"*$exiva#a#7@1nm8*$e@,u<.#u#r$28oz=7<@7eqz+33+o84XX",
"zzid0#aaa#770@doXO,rr..uaa,.rz4X$5d@q1#.@d;24+o*$O",
"q7,.@rstsu,==O5>-=,@@..<hhaafr=>O>+z>,u.@NwX$$X+iO",
"0k@,.,lthf.1qqke0=,###u<hhshl<,-e$=xcjsjV*4>4$*+5*",
"kB0.@1,a#####af@@q,##,@##<uaauu#,7-==vfVbX4+O0g3>4",
"$Oy.##<<<.n##r10#7,##07#ah66ltps<#@=589bixOx.@iw>o",
"y@rvrstth@7###,.u@<lfq<f6&&ptp&ps<aM::2d,<7nl.dOg9",
"1@.xcvfn1yk<h6fBVd,uVd<.sp&&ttsttfM92wXX-.v.j,q@r0",
"iNv.0k8gxiM.a6Vzy$-=k0q-0.us6sjvVco*44$$4qkd7.uhj<",
"7vnNM7bx@iB@@Bmz==e@.#e17k--xdcc85*$$$$$=$*oq7f6f#",
"cq>2zqgOdN8882ieqv.###eOOg==yOgm+>X=10-O=$>ozrreyr",
"%*4*44*4X*: ;+g.rrr.##,r@imx#,b3X$$q,<.-$$>22x1O$=",
"+X$XO=4XO$9 2kCl,17.#,,#ax9dfV9o==7.lja0O$X*o>=111",
"O*w50qXzq-2;i@jtl######<u.q1kwk-qq,#@yib5*$$+84gii",
"$Xw*z>Xb$O5d@rq<a###<##<u<##d9d70@y-1O9 ;3X$+8X+wo",
">X44X>>+>5=.<,-,#<l66666ujln38Oeyrr=--8 %o>$O+*X4$",
"wwdyd1d22b0<<@0lh6&&&&p6vB7N9X-e-,<710i;w=ie.k>++4",
"n*g+cnNo*x#st66&&ttt66Cky7Bb>=.#j66uusc 57.j<1$X5+",
"tBw;ooo4=,a66jvn.r@@1e0q,@mwy.tsfalsshN cja#1=$$+2",
"pC2:32+*=1q171xk,u#1eMnuuNw4=u&h,,s&6.m z@77.rq-82",
"&jz8 98*44y7<xnhCh6VfVChVw4-@6hf7.ppvM83i@<j6j@=XX",
"vV$+%*$Oy5Vauvjsns&spluCi4-#h66u#l&6do45cfltp<eO$$",
"-*X4=O0r,xB6tt&pp&&&tpsm*O@uppp6al6fx*X2mns6tfeyO$",
"Oqq7f77#<<sp&st&&&&&6tjm*y#htt6j<@q--$o 2@fn6jd=yq",
"71qatl@.fCC6&pp&&&&pl6v9*-@nBBBMkO$4442 2r@u6vxO=q",
".@7s&6<##@ns&&&&&ptlcvM:*O7gg>9%>$$$$$*3b01ulBBeOw",
"@@fj6l#<jl#fstp&&ptjmnN%>$-edb+*$$$$OOOdzicBMNck>+",
"7xM.sa#<6phu.<f6pp&tVN8>Oeey>>$$44$$1@0@7i++2;;%:%",
"a####7fhlt&psh.7@vhjc:+$-#.-eq1-Xdr.##.,=>53++:   ",
"ttttvy0ust&&pl<.a.yi:ozOy@-y.###,v#.7e1y44+3*X3;ow",
"&&&&fe0rh6ppu##u6v*o:g77b32=1.#juf#e4$O$$$XX*3;;+$",
"&&&&f<ha#<ane,<lCb2%2>-=9 mr1ydk0rqy=70q-Okxb   9k",
"p&&&ffh6j#1-eqei5>82*$y>% mMMm:%k-$Or<.@.@jsc ; 9d"
};
