/* XPM */
static char *bc535a5410df4df9ba2a3ddffc7084efBLMWxJA6UUbUZQrK[] = {
/* columns rows colors chars-per-pixel */
"50 50 232 2 ",
"   c #03203F",
".  c #2E233E",
"X  c #6F1C2E",
"o  c #482137",
"O  c #762337",
"+  c #042444",
"@  c #072B4D",
"#  c #0A2C4C",
"$  c #0A365A",
"%  c #163254",
"&  c #342F4B",
"*  c #0D3D63",
"=  c #113D61",
"-  c #503450",
";  c #67344C",
":  c #743C56",
">  c #0E4067",
",  c #0E436C",
"<  c #13446B",
"1  c #0F4973",
"2  c #144D77",
"3  c #0F527F",
"4  c #14527E",
"5  c #1B547D",
"6  c #29476C",
"7  c #28537B",
"8  c #36537A",
"9  c #515173",
"0  c #6A4868",
"q  c #774A67",
"w  c #695574",
"e  c #755777",
"r  c #B4101B",
"t  c #981623",
"y  c #B41D29",
"u  c #8B2435",
"i  c #982A3C",
"p  c #AC2736",
"a  c #B72636",
"s  c #D5070C",
"d  c #C70C13",
"f  c #DA0C12",
"g  c #CB121B",
"h  c #D9141B",
"j  c #ED070A",
"k  c #F50305",
"l  c #FE0101",
"z  c #F40709",
"x  c #F90609",
"c  c #F50A0C",
"v  c #FA0A0B",
"b  c #E60D12",
"n  c #F30E11",
"m  c #EA141A",
"M  c #F31518",
"N  c #F21619",
"B  c #C61A25",
"V  c #D41A23",
"C  c #DB1D26",
"Z  c #E41B23",
"A  c #EB1D23",
"S  c #DA222C",
"D  c #CE2631",
"F  c #C82835",
"G  c #D82B35",
"H  c #D8323D",
"J  c #E7242A",
"K  c #F02125",
"L  c #E72B32",
"P  c #E4343C",
"I  c #8B374E",
"U  c #9B364B",
"Y  c #A93548",
"T  c #B93647",
"R  c #B03649",
"E  c #C93B49",
"W  c #D93A44",
"Q  c #E43B42",
"!  c #85425B",
"~  c #98445B",
"^  c #A84459",
"/  c #B84557",
"(  c #9C4A63",
")  c #915670",
"_  c #A54C63",
"`  c #B34E63",
"'  c #A95268",
"]  c #B8566A",
"[  c #A55B73",
"{  c #97617D",
"}  c #AA637A",
"|  c #BA677A",
" . c #C84655",
".. c #D74853",
"X. c #DA4953",
"o. c #E0434B",
"O. c #C85766",
"+. c #D35965",
"@. c #C96573",
"#. c #D36672",
"$. c #155582",
"%. c #1A5783",
"&. c #155986",
"*. c #155C8C",
"=. c #195F8D",
"-. c #165F90",
";. c #265B87",
":. c #365C87",
">. c #1E628E",
",. c #166293",
"<. c #1A6494",
"1. c #1A6799",
"2. c #1D6A9B",
"3. c #26628E",
"4. c #3A648E",
"5. c #236693",
"6. c #296A95",
"7. c #216C9D",
"8. c #376B96",
"9. c #32749D",
"0. c #206FA1",
"q. c #2473A4",
"w. c #2576A9",
"e. c #2879AA",
"r. c #2A7BAC",
"t. c #357AA6",
"y. c #2B7EB0",
"u. c #535E83",
"i. c #486C95",
"p. c #506991",
"a. c #576C92",
"s. c #736788",
"d. c #686C92",
"f. c #6A7398",
"g. c #797394",
"h. c #467CA9",
"j. c #577BA5",
"k. c #747EA3",
"l. c #896887",
"z. c #95718C",
"x. c #867898",
"c. c #957C99",
"v. c #AC7389",
"b. c #B87588",
"n. c #C67685",
"m. c #3982AD",
"M. c #2E81B4",
"N. c #2D85B9",
"B. c #3384B5",
"V. c #3B85B4",
"C. c #3086B9",
"Z. c #348ABC",
"A. c #3A8DBD",
"S. c #3E90BF",
"D. c #5187AE",
"F. c #478AB6",
"G. c #5788B5",
"H. c #4892BD",
"J. c #708EB4",
"K. c #358EC1",
"L. c #398FC1",
"P. c #3690C4",
"I. c #3B92C4",
"U. c #3B96CA",
"Y. c #3E99CD",
"T. c #3D9DD1",
"R. c #4998C5",
"E. c #429BCC",
"W. c #5899C5",
"Q. c #429ED1",
"!. c #639CC7",
"~. c #749CC2",
"^. c #4CA1CE",
"/. c #56A3CC",
"(. c #44A1D5",
"). c #4BA3D4",
"_. c #46A5D9",
"`. c #4AA7D9",
"'. c #4CAADC",
"]. c #52A6D4",
"[. c #55A8D5",
"{. c #5CABD5",
"}. c #53ADDD",
"|. c #5BAEDB",
" X c #5BB0DD",
".X c #67A3CC",
"XX c #7CA9CC",
"oX c #65ADD5",
"OX c #76ACD2",
"+X c #66B4DC",
"@X c #75B6DB",
"#X c #52AFE0",
"$X c #55B1E1",
"%X c #5CB5E3",
"&X c #5AB8E7",
"*X c #62B6E1",
"=X c #64BAE5",
"-X c #6BBCE4",
";X c #6ABEE7",
":X c #73BDE3",
">X c #7FBEE1",
",X c #6EC1E9",
"<X c #7AC4E7",
"1X c #74C5EB",
"2X c #7BCAEE",
"3X c #7ECCF0",
"4X c #91839F",
"5X c #A7859C",
"6X c #B8879A",
"7X c #918EAC",
"8X c #879ABA",
"9X c #AE93A8",
"0X c #98A1BD",
"qX c #A6A3BB",
"wX c #B1A2B7",
"eX c #88A8C9",
"rX c #90B3D1",
"tX c #A9AEC4",
"yX c #A4B8CF",
"uX c #80BFE2",
"iX c #9CC5DF",
"pX c #86C9EA",
"aX c #98CBE7",
"sX c #93D0EC",
"dX c #82CFF1",
"fX c #85D1F2",
"gX c #8BD5F4",
"hX c #8ED8F6",
"jX c #93D6F2",
"kX c #99D6F1",
"lX c #93DAF7",
"zX c #95DCF8",
/* pixels */
"zXzXzXzXzXzXzXzXzXzXzXzXzXzXzXzXzXgXdXfXlXlXzXlXlXhX;X$X'.Q.U.Y.Y.y.L.Y.y.r.^.dXlXlX2X,X2X=X;X3X1X2X",
"zXzXzXzXzXzXzXzXzXzXzXzXzXzXzXzXlX1X=X,XgXlXlXhXlXlX2X=X'.Q.Q.'.).y.Z.E.I.E.+XfXzXzXhXgXgX1X=XfXfX1X",
"zXzXlXlXlXzXzXzXlXlXzXzXlXgXfXfX2X1X,X,X;X2XfXgXlXzXfX XE.K.K.E.L.w.w.K.(.$X2XgXzXzXzXlXlXfX,X1XfXfX",
"zXlXzXzXzXzXzXzXzXzXlXdX1X1X1X,X1X1XhXfX;X*X;X>XdXfX;XE.y.0.1.0.e.w.e.W.}.'.$X;XfXzXhX2X2X3X1X3XfXfX",
"1X2X2XhXzXzXlXlXzXzXlX2X*X%X:XfXfXgXtX>X;X]..X{.$X=XJ.8.p.i.1.0.R.+XE.`.Q.Q.`.#X;X1X2X;X$X=X,X,X2XfX",
"E.(.`.1XlXgX,X+X2XgXlXgXdX2XfXjXgX>Xc.J.J.j.W./.!.J.( ) ( ! i.K.'.$XQ.P.K.(.%X$X'.).=X&X'.'.$X;XdXhX",
"Y.Y.U.).,X1X[.S.E.=X1X2XgXgXfXpXeXeXXX.X[ { W.x.]  .G _ T n R k.J.W.H.t.V.W.=X%X%X*X1X%X%X1X2XfXlXlX",
"'.%X[.P.(.=X+XP.M.K.Q.'.=X*X$X~.v.9XqXqXb.| E C m n n U R l z m Z D E e f.J. X%X+X<X2X,XfXgXfX3X2X2X",
"=X;X;X].}.,X2X].Z.B.M.Y._.R.G.k.c.9Xn.Q K N v l x x N R F l l l l l x m R 4XOX@X:XdX2X2X2X,X%X}.'.].",
"2X2XgXgXdXdXgX2X+XoXH.F.G.x./ H H H K v l l l c A L J E W x l l l x l l n W O.6X0XOX{.`.'.E.(.`.`.Z.",
"&X;X2X2XfXlXlXgXpXOX~.c.v.E v l k l l l l v N P  .O. .b.@.Q L N n l l k k l N H } f.V.R.E.I.(.,X1X|.",
",X,X1X%X%X,XpXsXaX0Xb...P L N l l l l n J o.@.n.9XqXqXyXtX9Xn.@.X.L v l l l l x W } 7X+X=X@X2XhXlXgX",
"=X,X,X,X$X].XXiXtX+.L L o.X.L x l x N +.n.wXiXaXaXkXkXlXkXaXaXiXtX6X+.A l x N L L P b.XX%X{.<XgXzXzX",
"&X;X,X2X2X1XpXeX| N v L +.X.N x N W 6XyXpXpX<X<XgXlXzXlXzXzXlXkXgXaXeXv.P L #.#.Q n  .8XH.B.R.<XlXzX",
"2XfXfX<X@X@X+Xx.W x l x K |  .Z b.yXpX+X}.E.B.A.{.:XfXgXgXlXlX<X1X1X:X:XqX6X@.K z l n O.8X.XoXdXzXzX",
"gXdX1X/.g.g.k._ m k l l x J ] g.~.3X&XY.C.0.<.2.y.Q.}.%X,XgXgX*X`.=X[.+X:X@X4XN l l l G 9XpXgXhXzXzX",
"=X[.A.h.) R T C x l l l k m } G.[.%XE.M.q.&.=.w.y.K.K.Y.#XdXlX1X}.|.A.M.A.(.J.E v l l x O.2XpX:X3XdX",
"$X`.L.F.{ Y h l l l l l b ^ J.OX$X`.C.q.7.*.=.1.<.=.1.y.Q.,X1X;X[.(.M.2.q.M.h.) Z l l l G 7X:X$X#X#X",
").Q.^.H.e Y f k l l l c R a.).;X'.Y.w.w.q.1.<.&.$.$.<.1.r.(.'.#X'.}.R.M.C.M.5.9 a x l l c  .@X$X_.Q.",
"A.B.e.8.I h j l l l l F f.E.}.}.Y.U.q.0.q.1.<.&.1 , $.$.=.e.U.`.(.}.}.).(.7.5 8 U N l l l C ~.*X X_.",
"N.B.q.4.U j l l l l f e V.C.P.C.N.P.q.,.1.,.*.*.1 , , , 2 -.q.C.C.T.(.E.R.%.* 8 ) G x l l m } oX&X#X",
"I.A.y.6.q b l l l z Y :.<.>.5.w.w.C.q.,.,.0.0.,.-.&.2 $.4 2 4 <.0.M.Z.Y.E.9.5.D.z.H x l l k D eX&X'.",
"Q.U.K.5.: h l k k h w 5.,.q.e.q.1.q.2.-.,.r.w.<.$., $ * * $ @ * *.,.q.U.%X-X:XoXx.F c l l l Z 8X&X;X",
"P.y.e.4.! g k k b R p.5.,.,.7.2.>.q.<.2 5.M.1.&.* + + + @ + + @ , &.5.W.dXfX1X/.u.a x l l l C J.[.;X",
"L.r.q.a./ S h D F R f.<.1 = >.m.V.S.q.>.m.I.7.1., @ + + @ # $ $ $ 3.H.-X1X;X$XQ.d.a x k l c B w t.r.",
"/.R.6.i.R S G / T H s.7.$.< m.^.E.(.P.A.A.M.N.N.w.<.$.< * < 5 6.F./.+X&X'.'._.).J.R b l l c B I 7 ,.",
"V.e.m.J.' D J G D E s.t.e.F.{.].Y.I.N.w.7.7.N.Z.N.L.K.B.N.H.R./.-X%X$X_.(.(.(.W.k.` A l l x b y 8 ,.",
"W.I.].XXl.E m z m  .5X@X-X,X|.A.C.q.2.1.,.<.M.U.Y.).Q.E.I.Y.|.<X=X$X'.Q.C.N.P.R.l.W N l l l c a j.r.",
"2X$X'.{.l.S l l l A b.aXgX-X^.q.q.w.q.2.,.1.q.w.M.[.+XS.2.M.+X2X$X_.Q.C.2.=.q.h.[ Z x l l l m ) R.U.",
"=X}.'.].l.h l l l v +.yX1XR.6.4 1.r.w.1.,.1.2.,.>.S.-XR.7.F.,X+X(.U.M.1.$.&.5.f.R N l l l N ` j.K.K.",
"_.$X=X}.f.a v l l l J qX/.e.5 $ 1 >.1.<.,.,.,.,.4 7.Z.B.I. X^.I.K.N.q.1.q.A.W.c.G x l l l L J.].{.{.",
"_.#X=X&XW.' N l k l k ' i.w.r.,.$.,.,.,.&.>.&.,.4 &.,.7./.,X^.M.M.y.C.K.N.(.rXn.N l l l v O.oX*X=X=X",
"$X#X'._.].} m l l l l V 0 9.N.0.,.&., $ $ $ $ > 4 4 4 m.,X,X^.Z.P.M.M.Z.P.R.7XX.x l l l S c.|.$X'.'.",
"*X*X).Q.R.s.G k l l l k B 0 6.1 > $ +   + + # > 5.t.r.oX1X#XP.N.N.2.,.w.M.i./ N l l l x Y D.}.&X&X'.",
"m.].|.*X/.g. .v l l l l k r ; # @ $ $ $ * > 3.B.N.M.H.+X XA.2.>.5 , * 3 7 : N l l l z y 0 B._.}.&X=X",
"$ m.;XfX,X8X] A l l l l l k g q 3.5.<.7.r.M.M.B.q.m.+X XT.2.$ > >.5 < % - p x x l l B 0 h.R.Q._.=X1X",
"@ 8.;XgXfX<X7X .c l l k x n D ^ w ;.>.r.Z.F.9.&.>./.=X'.A.3 @ , <.3.- r y p N P Z b U i.1.q.Z.E.;X1X",
"# %.^.1XgX2X@Xc.G l l c F T S f h i - i.3.m.6.5 m.+X'.Z.0., * >.4.: d k a { N Q E U 0 2 * $.w.E.'.#X",
"5.V.`.=X2X X`.G.^ N x b i U f l l j d O o 6 %.t.{.'.A.1., $ % - I g k l  .} J  .[ 9 6 @ @ &.y.Q._._.",
"I.].`.`.^.Y.N.9.w R F s d d j l l l k s r X - .X XT.M.1 # . O y b k l l m S J | 8Xi.= = $ &.Z.Y.T._.",
"Y.P.A.e.<.w.w.1.;.9 - t s l l l l l l l l s i 4X.XG.3.2 - t s x l l l l l x  .tX:Xe.*.>.* 5 I.E.U.K.",
"t.B.N.$.$ 1 7.1.=.7.;.& X r j l l l l l l k j  .c.) q a.~ c x l l l l l c / eXaXeXi.u.6 = 3.I.T.T.U.",
"e p.8.6 # % 7 3.=.6.4.6 . o t k l l l l l l x L  .' Y z./ x l l l l l l E k.~.7X] F F p : i.j.h.W.~.",
") ~ a p u i ~ q 0 : p ! ; ; p z l l l l l l c P ] T ~ g. .l l l l l l l n Z Z m n N  .[ ` W C S  .O.",
"a.f.) S h h F p p y f m V h b x l l l l l l v H  .m C R F l l l l l l l l l l l l k G  .J n N K P X.",
"&.5.9 U Y S h B h j k l l l l l l l l l l l v G F x l F C l l l l l l l k l l l l k n L L H #.#.n.6X",
"@ $ & - w ^ T a g d f k l k l l l l l l l A E R ^ C F ( a x l l l v m j l l l l l l c L .. .X.#.b.eX",
"      @ 8 a.e ! : O X y g h m f g B J J Q [ d.f.4X5X7Xj.e R a y y a I ^ S N N N m m D  .] @.X.+.v.J.",
"      + 4 >.7 8 9 ;.7 9 d.w I ! w 4X5X6X0X!.I.E.uXsX@XA.h.D.f.g.a.p.h.G.l.U / _ _ ) { s.7XtXtXtXrXR.",
"+     + 4 &.> = 5 >.M.A.V.m.D.G.{.}.@X<X+X(.E.}.dXlX:XH.H.@XyXeXR.L.Q.R.t.:.4.8.8.8.7 5 W.fXjXjX<X)."
};
