/* XPM */
static char *result[] = {
/* columns rows colors chars-per-pixel */
"50 50 230 2 ",
"   c #0C0C0D",
".  c #0E0F10",
"X  c #0D1115",
"o  c #121314",
"O  c #161619",
"+  c #161A1C",
"@  c #1A1A1D",
"#  c #141C22",
"$  c #1D1E22",
"%  c #021E3C",
"&  c #201F25",
"*  c #192329",
"=  c #1A2B35",
"-  c #1A313F",
";  c #212126",
":  c #24252B",
">  c #26292D",
",  c #29292E",
"<  c #252A32",
"1  c #2C2C33",
"2  c #2F2F38",
"3  c #283237",
"4  c #24343D",
"5  c #323335",
"6  c #33333B",
"7  c #36393C",
"8  c #3A3B3D",
"9  c #062848",
"0  c #1A3747",
"q  c #0D3451",
"w  c #0A3558",
"e  c #283B45",
"r  c #363641",
"t  c #3A3A44",
"y  c #363D48",
"u  c #3C3C49",
"i  c #0E3D61",
"p  c #403F41",
"a  c #1B435B",
"s  c #2E414C",
"d  c #39434A",
"f  c #2B4757",
"g  c #394A57",
"h  c #3C525C",
"j  c #174669",
"k  c #12486E",
"l  c #144D76",
"z  c #18527B",
"x  c #274C63",
"c  c #2D546A",
"v  c #395767",
"b  c #2C5A77",
"n  c #335D76",
"m  c #2B607E",
"M  c #39657C",
"N  c #434345",
"B  c #44444A",
"V  c #4A4B4D",
"C  c #444D53",
"Z  c #4A4D53",
"A  c #475259",
"S  c #4D555B",
"D  c #535455",
"F  c #555659",
"G  c #57585A",
"H  c #5A5A5B",
"J  c #455A67",
"K  c #585D63",
"L  c #415D70",
"P  c #49626D",
"I  c #586168",
"U  c #476678",
"Y  c #586977",
"T  c #626264",
"R  c #63676A",
"E  c #6B6C6D",
"W  c #6A6C71",
"Q  c #697076",
"!  c #727374",
"~  c #747679",
"^  c #75787B",
"/  c #7A7A7C",
"(  c #175986",
")  c #1A5E8B",
"_  c #165F90",
"`  c #285E84",
"'  c #1B6494",
"]  c #1E6B9C",
"[  c #25638C",
"{  c #396C87",
"}  c #3A708E",
"|  c #286C98",
" . c #28719E",
".. c #36769A",
"X. c #2372A4",
"o. c #2B76A3",
"O. c #2A7BAC",
"+. c #367DA7",
"@. c #2B7EB1",
"#. c #496C83",
"$. c #487288",
"%. c #567889",
"&. c #497B96",
"*. c #577D92",
"=. c #697C88",
"-. c #7C7F82",
";. c #3882AC",
":. c #2E82B4",
">. c #3686B5",
",. c #358BBC",
"<. c #3B8DBD",
"1. c #4F849D",
"2. c #59849A",
"3. c #6D828D",
"4. c #7B858C",
"5. c #678698",
"6. c #4A86A7",
"7. c #548DAB",
"8. c #448CB4",
"9. c #4C92B7",
"0. c #4592BD",
"q. c #4B94BB",
"w. c #5896B9",
"e. c #658EA4",
"r. c #6996AD",
"t. c #7490A4",
"y. c #6699B5",
"u. c #759CB5",
"i. c #6BA2BC",
"p. c #73A3BA",
"a. c #378FC1",
"s. c #3691C5",
"d. c #3C93C4",
"f. c #3B96C9",
"g. c #3D99CD",
"h. c #3F9CD1",
"j. c #479AC8",
"k. c #599EC4",
"l. c #429ED1",
"z. c #4BA0CE",
"x. c #57A3CB",
"c. c #44A2D5",
"v. c #4AA3D4",
"b. c #45A5DA",
"n. c #4CAADC",
"m. c #53A8D5",
"M. c #57A9D4",
"N. c #53ADDD",
"B. c #5AADD9",
"V. c #5DB2DF",
"C. c #6AA9CA",
"Z. c #6EAFCE",
"A. c #78ADC5",
"S. c #62B3DC",
"D. c #69B3D8",
"F. c #77B8D7",
"G. c #5DB5E2",
"H. c #5FB8E5",
"J. c #64BAE5",
"K. c #69BDE6",
"L. c #74BDE1",
"P. c #7FC1DD",
"I. c #6BC0E9",
"U. c #79C3E6",
"Y. c #75C5EC",
"T. c #7CC9ED",
"R. c #838587",
"E. c #8B8C8D",
"W. c #808A91",
"Q. c #8A9296",
"!. c #8D959B",
"~. c #949495",
"^. c #969799",
"/. c #9C9C9D",
"(. c #899AA8",
"). c #9A9FA3",
"_. c #9CA6AC",
"`. c #85A8BA",
"'. c #92A9B8",
"]. c #A6A7A8",
"[. c #AEB1B3",
"{. c #ADB8BF",
"}. c #B5B6B7",
"|. c #BBBBBB",
" X c #85ADC5",
".X c #94AFC0",
"XX c #83B2CA",
"oX c #97B5C7",
"OX c #86BBD4",
"+X c #9ABFD4",
"@X c #A8B9C4",
"#X c #B8BFC5",
"$X c #85C2DC",
"%X c #99C6DB",
"&X c #B8C2C8",
"*X c #A8C5D6",
"=X c #B7CCD8",
"-X c #86C8E6",
";X c #95CBE3",
":X c #8ED2EE",
">X c #99D2EB",
",X c #82CEF0",
"<X c #84D1F2",
"1X c #8DD5F3",
"2X c #93DAF6",
"3X c #99D9F3",
"4X c #95DCF8",
"5X c #A5D2E6",
"6X c #A6D4E8",
"7X c #B7D6E6",
"8X c #C2C3C4",
"9X c #C2C7CB",
"0X c #CBCDCD",
"qX c #D0D0CF",
"wX c #C9CFD3",
"eX c #CED1D3",
"rX c #C7D3DB",
"tX c #D4D6D8",
"yX c #DADBDB",
"uX c #C6DBE6",
"iX c #D7DEE2",
"pX c #C6E0EC",
"aX c #D9E3E9",
"sX c #E3E4E4",
"dX c #E4E9EC",
"fX c #EAECED",
"gX c #E6EEF1",
"hX c #EAEEF0",
"jX c #EDF1F2",
"kX c #F3F3F3",
/* pixels */
"4X4X4X4X4X4X4X4X2X:X$X$XF.p.2.h g P 2.F.3X3X2X2X2X1XI.V.n.h.f.f.l.@.a.j.@.O.9.$X2X2XL.w.i.S.J.T.Y.T.",
"4X4X4X4X4X4X4X2X:Xr.P h g 7 5 V H V 7 M F.:X;X-X1X2XU.M.z.z.x.m.z.@.@.j.a.7.%.*.A.-Xy.J %.7.k.T.T.Y.",
"4X4X2X4X2X4X2X:XOXP 5 & * > N ! -.T H I U r.`.XX;X>X$XC.0.$.2.1.j.o.6.0.j.y.=.F I %.h 3 3 h 1.I.1X1X",
"4X2X2X3X3X4X3X6X`.C 5 1 7 / /.].].].].~.5 s R (.5X5X%Xp.5.s 5 h &.y.oX*X*X=X'.W D d : o * f M i.T.T.",
"Y.Y.,X6X6X3X6XpX_.K T ! E |.yXyXyXqX}.E ; o 7 ~.rXrX*X@X4.7 > 1 C Q.wXiXyXiX0X|.E.V ; < n { M w.T.T.",
"l.c.m.-X5X%X%XaXsX}.! E T ! / ~ / ! V 5 @ . > G ~ / ~ ~ K 3 : : : B W ^ / / / / ! E 5 f ;.x c 1.F.2X",
"g.g.f.z.Z.F.F.rXkX0XF 6 2 1 1 , 5 5 > ; @ o ; > > 1 1 , : $ @ $ @ ; 1 1 1 1 6 2 N -.N s f 3 e h 2.XX",
"n.G.m.<.z.F.5XaXkX8XV 1 : : 1 1 5 > : * ; O $ O O O O O O o O o o o o ; , : : , 7 H V d ; + 3 s h 1.",
"J.J.K.m.M.$XpXfXkX].N 5 ; : 1 1 , , ; ; ; O o .     $ p $ + $ $ ; O O O @ @ O @ @ , H D ; X - { ;.q.",
"T.T.-XP.P.;X=XsXfX~.7 > $ : , , 1 5 > ; O . .     $ E E.5 $ ; > : : 1 , $ @ O @ $ D R.H ; # m z.z.,.",
"V.w.7.2.p.$XoX&XfX~.7 > $ : , 1 1 , @ o . o @ o O T 8X].1 O ; : ; ; 1 5 2 , ; > 5 E ].T > # } S.Y.B.",
"S.1.M x $.U t.{.sX~.7 > : , 1 ; O O .     o o o N [.yX^.5 o o o O @ , , 1 : $ 1 8 ! }.! > * $.A.:X1X",
"S.1.v f f s h ^.yX~.7 , : 1 ; O O O o o o o o > ~.sXfX8X/ ;     o o O O O o O > 5 E 8X/ $ 4 1.e.i.:X",
"V.6.s * f v D E.qX! 5 , : ; O O : ; o @ > ; , T 0XfXfXfX/.;   o @ ; @ o o o o o @ 5 H 5 * c } v %.p.",
",XP.2.= e 2.!.qXqXT 1 > @ o o : : O o : 1 > 5 ~ ]./.].}.! ; @ O O , ; @ $ ; @ O + + 5 8 d Y U g v P ",
"<X<XC.n = d R.[.^.V ; O o o @ : $ o O > 3 > > A ! / / E N ; > ; O O $ ; ; ; ; > 1 8 /.|.!.P s = P p.",
"J.v.>...$.S p 5 : O .   o $ & : $ o O 1 2 , 1 I /./././.T 5 > , & o o $ $ : : , 1 V 8XyXW.d * * &.T.",
"m.j.+.8.XX&X/.R 8 $ o $ & & : : ; O @ 1 1 : 1 K ~ E E -.E 5 , 2 2 & o O @ $ : : , B [.8XQ 3 4 { j.N.",
"j.0.w.C.oX&X8X8X^.t : : , : : : @ o ; 1 : : , p G H G D B , : 2 2 1 & O o o @ O @ : D H 5 = { m.n.l.",
">.>.w.`.=.W ! E.~.B 1 : 1 2 2 , O o : 2 ; : , N D N D D 7 , , , , , , , , : @ o . . O & $ * c k.B.b.",
">.>.1.t.K 5 V W E.B , ; , 2 2 : o o ; 1 : : , V V , N H 8 , : : : & $ : 2 2 : O . O V E.E.K 0 f q.N.",
"d...x c Y d 5 /.].t , ; , 2 2 O o @ ; 1 , : , u G D D D 5 , : : $ $ @ & , 5 ; o O 1 R.sXiX Xv = n l.",
"h...0 0 s y 6 }.].u , : 1 , $ . o $ ; : : : , u G H G D V 1 : ; $ $ $ $ 1 1 O o : 6 E.sX+X7.n * n D.",
"s.[ i = 1 p 8 E.-.r , & & @   . O O o O O O > F / ! ! E.! 2 @ O O   o @ : : o O , 6 / yX.X[ 0 $ c D.",
",.X.j d V 5 ; 7 t , $ o o o O $ O . o O @ o $ S ~././.E.D * O @ $ @ o O O O . @ , 2 T eX@Xc q 0 x @.",
"z.9.b =.[.R @   o o o . @ $ & @ o $ : : , $ O 3 F E E K 2 O @ , 2 2 , ; $ o . @ < 2 G qXrX#.j i l _ ",
">.o.;.A.*X_.K O . O O $ ; & o o $ : : $ , : O = =.].[._.d $ ; : : 2 1 : : o   O , 2 H eXdX X[ k ) ' ",
"x.<.x.D.C.C.`.I & . O $ $ o o O : : : & : : o 5 }.kXfX#XA : ; @ & : ; $ $ O o o $ 1 H qXhX+X+.O.a.O.",
"T.B.j.M.N.F.7X[.B $ . o o o $ $ & $ : : ; $ o F tXgX&X3.s > ; $ & ; : & O o & @ o & Z 8XhX*Xk.f.h.f.",
"J.N.k.Z.OX7XaX#XZ < & & $ & & : : : : $ & o @ -.rX+Xy.e # : : : : ; , & O @ , & o $ 8 ].fX7XC.a.a.a.",
"b.V.L.;X=XfXkX#XV 2 : : 1 : & , 2 < : $ @ . ; Q.&XA.| * . O $ : & : : $ @ , 2 : o . , /.fXuXD.m.m.B.",
"b.N.F.=XwX0XqX/.u : : : 2 2 1 2 2 2 , $ o o 1 ).tX(.e .   O O @ O O @ & , 2 2 : @ . & ^.gX7XF.J.J.K.",
"N.0.M I D B N 8 $ @ @ : 1 1 2 1 1 1 1 @ o @ 1 / [.S O   o $ $ $ $ : 1 1 2 2 2 : & $ O ~ iX7X-XJ.n.n.",
"V.6.e = C F G 5 o o o O $ O $ $ & 1 1 $ $ & & r Z &     . : ; : : r u r r 2 2 1 & : $ 6 !.=X5XL.H.n.",
"+.q.&.2.@XyXqX-.1 ; @ O O O O $ 1 r 1 : & $ & o O e 9 o   O $ : ; 1 r u u u r 2 & 1 , $ y e.F.V.H.H.",
"i +.A.$X7XgXfX(.t , : 1 2 2 r 2 r u 2 & : : & o . i g o   o o @ ; 2 6 r r r r r : : 2 B W.XXS.l.H.Y.",
"9 { A.;X6X7XuX!.y , : r r 2 2 r u u 1 & : : & o . # # . . $ @ O ; r u r 6 1 1 : @ O $ V ]. Xj.l.J.Y.",
"% x 6.-X6X6XuXQ.r : : 1 2 2 r t r u r : : & & o . .     o * $ : 1 r r u r r t 2 @ O o $ u y [ f.N.N.",
"a c 6.F.>XiXiX-.6 , : 2 t r r r r u r 1 r & & . .       o $ : r 6 r u 6 t r 2 2 : > > , u > i 8.l.b.",
">.9.k.F.uXhXtXT 2 , : r r 1 r r r r r r r : & o . .     o & ; u r 2 u 6 r t r 2 : 1 2 V /.-.< x j.l.",
"h.<.q. XrXhXeXF 2 : : 2 2 2 t 6 r r 2 r r & & .         . & & u t 2 r y 6 6 6 2 ; , 1 B [.{.g - +.a.",
"O.;.>.&.=.#XeXW B u p B t r r 2 r r 2 u r 1 1 1 , 1 , , 1 1 2 u B 2 1 r r 6 6 t t N B H [..Xn 0 o.f.",
"]  . .l x (.aX9X}.}.|.}.).W.R K B r r Z g u J (.}.|.#X#X!.v u J A y y C K =.R./.}.|.|.#X#Xy.b 0 >.J.",
"X. .[ ` #.*.*. X'.@XiXfXwXwXwX9X_.4.=.#.#.L *.rXkXkXhXaX#X*.#.#.*.t.(.oXwXyXsXgXfXhXaX=X+XC.&.x &.S.",
"O.:.>.| ` ` ' [ #.(.@X@Xr.u.@XrXtXrX#X@X@XoX+XdXkXhX7XOX+X+X X+XuXaXgXdXaXhXhX=X%X7X6XP.Y.-XA.e.A.L.",
"( _ [ ) _ X.) l #.!.#.j i ` ..7.u.`.=.oXaXpX6XuXfXrXy.j.x.+XXXOXpXjXjX*Xp.oXoX9.j.F.-XT.J.B.F.A.-X1X",
"w w w w [ ,.O.( ` L 9 % w i _ ] )  .j.D.6X,XB.F.%XA.j.a.X. .| | y.rX+Xw.:.<.<.f.b.n.I.Y.V.q.y.F.L.K.",
"% % % 9 ( @.O.| l w 9 9 ( _ ( ( i  .n.L.,XN.:.,.L.L.J.j.@.] ' ( ) +.&.@.h.h.g.b.b.b.n.N.V.F.P.-XK.l.",
"% % % 9 ( _ l ( _ ( _ ] @.X._ ( ..M.,X,XK.N.s.l.,X1XL.>.,.j.j.<.@.O.,.f.f.@.:.a.s.f.a.@.D.2X2X2XL.l.",
"% % % 9 z ( i i l ' @.,.a.:.,.z.B.G.K.,XG.b.h.N.,X>XL.0.j.J.,X-Xj.s.l.l.@.' ] X.X.X.( ( k.2X4X2X,Xm."
};
