/* XPM */
static char *_94212ce581941bcb5076868a3e96e35qCOseq6h1UPWfycT[] = {
/* columns rows colors chars-per-pixel */
"50 50 231 2 ",
"   c #0C0908",
".  c #140A05",
"X  c #180D08",
"o  c #1A110A",
"O  c #0D0E11",
"+  c #0D1217",
"@  c #1A1918",
"#  c #340D06",
"$  c #23140B",
"%  c #28140B",
"&  c #2B1A0E",
"*  c #3A180D",
"=  c #241C17",
"-  c #2E1D12",
";  c #341E11",
":  c #2D2219",
">  c #39251A",
",  c #0B1A29",
"<  c #141D27",
"1  c #061D34",
"2  c #021F3D",
"3  c #192126",
"4  c #0A2237",
"5  c #04213D",
"6  c #122633",
"7  c #172A38",
"8  c #2C2B2C",
"9  c #3A2C22",
"0  c #27333A",
"q  c #49190F",
"w  c #611C0F",
"e  c #492519",
"r  c #582316",
"t  c #662616",
"y  c #78261B",
"u  c #473428",
"i  c #573529",
"p  c #563C2D",
"a  c #463B35",
"s  c #6D372A",
"d  c #5B402F",
"f  c #5A4536",
"g  c #644838",
"h  c #6A4D3A",
"j  c #6E4D3A",
"k  c #74543D",
"l  c #78563F",
"z  c #042443",
"x  c #062A4C",
"c  c #0A2B4A",
"v  c #163248",
"b  c #072F52",
"n  c #0A3255",
"m  c #0A3659",
"M  c #0B385C",
"N  c #143A57",
"B  c #253C49",
"V  c #0D3D63",
"C  c #103D61",
"Z  c #1C4158",
"A  c #324754",
"S  c #0D4067",
"D  c #0E436A",
"F  c #12456C",
"G  c #18486C",
"H  c #0F4871",
"J  c #124B74",
"K  c #144F78",
"L  c #1A5173",
"P  c #14527D",
"I  c #1B547C",
"U  c #315369",
"Y  c #26587A",
"T  c #3F6177",
"R  c #484848",
"E  c #5A4C42",
"W  c #545554",
"Q  c #6F534A",
"!  c #6B594A",
"~  c #775746",
"^  c #6B5A57",
"/  c #736254",
"(  c #776559",
")  c #455D6A",
"_  c #535F6F",
"`  c #59676B",
"'  c #496578",
"]  c #576976",
"[  c #776C64",
"{  c #697175",
"}  c #777779",
"|  c #A8352E",
" . c #875B4F",
".. c #BB534B",
"X. c #856857",
"o. c #8E6F5E",
"O. c #8A7565",
"+. c #987868",
"@. c #8A7870",
"#. c #B0766D",
"$. c #8E8277",
"%. c #968574",
"&. c #A58778",
"*. c #145683",
"=. c #165986",
"-. c #1A5A85",
";. c #165C8B",
":. c #1A5D8A",
">. c #175F90",
",. c #215C83",
"<. c #1A608F",
"1. c #1B6493",
"2. c #196596",
"3. c #1E6A9B",
"4. c #22638C",
"5. c #2B6588",
"6. c #356B8A",
"7. c #286B95",
"8. c #236D9C",
"9. c #316C91",
"0. c #27719F",
"q. c #2C719D",
"w. c #39769A",
"e. c #1F6EA0",
"r. c #206FA1",
"t. c #2473A4",
"y. c #2B76A4",
"u. c #2576A9",
"i. c #2679AB",
"p. c #2A7BAC",
"a. c #377CA5",
"s. c #2C7FB1",
"d. c #4D768E",
"f. c #667C86",
"g. c #3A83AC",
"h. c #2E81B4",
"j. c #2F86B9",
"k. c #3284B4",
"l. c #3B88B4",
"z. c #3187B9",
"x. c #348ABC",
"c. c #398CBD",
"v. c #55829B",
"b. c #698796",
"n. c #778F97",
"m. c #4686A9",
"M. c #568FAD",
"N. c #458CB5",
"B. c #4692BC",
"V. c #6798AD",
"C. c #358EC1",
"Z. c #3A8FC1",
"A. c #3690C4",
"S. c #3B92C4",
"D. c #3B96C9",
"F. c #3E9ACD",
"G. c #3F9CD0",
"H. c #4296C5",
"J. c #4B9BC6",
"K. c #4C9AC4",
"L. c #439BCC",
"P. c #559CC3",
"I. c #429ED1",
"U. c #4CA1CE",
"Y. c #57A4CC",
"T. c #5BA4CA",
"R. c #44A2D5",
"E. c #4BA4D4",
"W. c #4FA8D6",
"Q. c #46A5DA",
"!. c #49A7DA",
"~. c #4CAADC",
"^. c #52A6D2",
"/. c #54A9D6",
"(. c #5CABD5",
"). c #53ADDD",
"_. c #5BAEDA",
"`. c #56B0DF",
"'. c #5CB1DD",
"]. c #67A7C7",
"[. c #78AFC8",
"{. c #63ADD3",
"}. c #63B4DC",
"|. c #6BB5D9",
" X c #72BBDD",
".X c #52AFE0",
"XX c #55B1E1",
"oX c #5CB5E2",
"OX c #5FB8E5",
"+X c #62B6E1",
"@X c #63BAE5",
"#X c #6BBCE4",
"$X c #6ABEE8",
"%X c #72BEE2",
"&X c #7DC0DE",
"*X c #6FC0E6",
"=X c #6DC1E9",
"-X c #77C5E9",
";X c #74C5EB",
":X c #7BCAEE",
">X c #7FCDF0",
",X c #8D8D8D",
"<X c #978D87",
"1X c #989795",
"2X c #A89789",
"3X c #A29F99",
"4X c #A8A29D",
"5X c #B8A798",
"6X c #93A6AB",
"7X c #A8A8A7",
"8X c #B4B2AD",
"9X c #C59E96",
"0X c #C7B8AA",
"qX c #CABCB1",
"wX c #CEC4B8",
"eX c #8DB9CB",
"rX c #AEBDC1",
"tX c #93C1D6",
"yX c #BECBCD",
"uX c #88C9E3",
"iX c #82CDEE",
"pX c #8CD0EC",
"aX c #82CFF1",
"sX c #85D1F2",
"dX c #8BD5F4",
"fX c #8FD8F6",
"gX c #96D7F2",
"hX c #92DAF7",
"jX c #95DCF8",
"kX c #D8D1C8",
"lX c #E1DAD3",
/* pixels */
"jXjXjXjXjXjXjXjXjXjXjXjXjXjXjXjXjXdXsXsXjXjXjXjXjXdX=XXX~.I.D.D.D.h.c.D.h.i.U.aXjXjX:X=X:X=X=X>X;X:X",
"jXjXjXjXjXjXjXjXjXjXjXjXjXjXjXjXhX;XOX=XdXhXjXdXfXfX>XOX~.R.R.~.U.h.x.R.D.H.'.sXjXjXfXdXfX;XOX>X>X;X",
"jXjXhXjXjXjXjXjXhXjXhXhXhXdXsXsXsX;X=X;X=X;XsXdXhXjXsX'.F.C.C.F.c.u.0.c.R.'.:XdXjXjXjXhXfX>X=X;XdXsX",
"jXjXjXjXjXjXjXjXjXjXhXsX;X;X;X=X=X;XdXsX=XoX=X:XaXdX=XD.h.t.3.3.p.u.i.U.).!.XX=XdXjXhX;X:X>X;X:XsXsX",
";X;X:XhXjXjXhXhXjXjXhX:XoXoX=XsXsXdXsX>X=X!.).).XX+X].p.3.e.3.8.U._.U.W.R.F.Q..X=X;X:X@X`.OX=X=X:XsX",
"R.R.E.;XhXpX#X#X:XdXhXfXsX:XdXfXdX>X@XXXE.S.E.Y.V.6X1Xb.q.u.h.A.!.oXR.x.x.R.oX.X!.!.#XOX!.).XX=XsXfX",
"F.F.D.E.=X-X^.x.J.oX;X:XsXdXdXiX:X=XOXoX!.I.R.P.6XwXqX#.v.h.j.R.Q.Q.F.j.j.E.=XoX'.#X=XoXOX=X>XdXfXjX",
"~.'./.S.R.@X+XS.h.A.R.~.@X@XoX'.;XsXsX>X*X'.U.P.3X0X9X .' 3.i.G.!.G.j.u.j.F.`.`.}.-X:X=XsXdXsX>X:X:X",
"@X@X#X/.).=X:X/.x.k.h.D.R.R.F.F.'.iXdXuX[.b.{ n.$.X.~ Q ' s.c.E.W.D.h.0.k./.;X=X;X>X>X:X>X=XOX.X!./.",
":XaXdXdXsXiXdX:X#X'.K.S.R.).E.).`._.].{ ( E a R E O.%.@.] P.}.}.^.U.P.B.(.=X>XaX:X*X`.).~.I.F.!.!.x.",
"@X=X:X>XsXfXhXhXfX=X'.).oX;X;XiX Xv.W g ~ ~ g > 9 ^ ( g f ,XuXiX:XsXdXdXdXsX;X=X`.D.c.H.L.c.J.;X;X'.",
"@X=X@XoXoX;XiXhXfX:X;XaX:X:XiXhX[.^ g j ~ o.~ u u f 9 & r +.7XeXgXjXjXjXhXhXdX:X*X'.{.+X@X*X:XhXfXdX",
"=X=X=X=XXX).#XaXhXfXfXfXdXdXjXuXn.h ~  .l ~ h p E E % X y #.#.#.tXjXdX:X>XhXjXhXdXiX;X'.@X'.;XpXjXjX",
"@X@X=X:X;X;X;X:X:X;XdXiX=X;X XV.W d l ~ k g h ~ h u ; r | ..#.#.7XpX;X=X;XdXhXfXjXfX:X}.c.h.K.-XhXjX",
">XsXsX;X=X;X+XE.R.#XaX:X$X{.V.` u d g d p d k X. .p u Q | | #.4X7X;X=X:X>X>X:X:XsXaX;X;X XT.{.>XjXjX",
"sXsX;X/.D.J.U.A.L._.).^.].v.[ $.h i u 9 > u d ! Q Q E a e | o.qX7X|.).}.;X=XoX=X@X'.~.'.>XdXfXfXhXjX",
"@X).Z.k.k.u.y.u.z.k.h.i.d.} 5XkX5X/ A R E E / ^ p p f E i e / qXrX].c.h.c.I.~.@X=XoXE./.;X:X:X=X>X>X",
"XXR.Z.H.J.7.;.>.;.3.u.t.d.4XkXlX4X] Y ' } @.+.%.X.p e p d > ( 0XyXT.h.3.t.h.x.c.E.oX:X:X@X=X=X.X.X.X",
"E.L.J.H.k.3.*.*.*.1.i.a.,XkXkX1Xb.g.g.) } @.+.2X2X .q e u u o.qXkXtXJ.h.x.h.3.3.h.^.aX;X.XOX=X`.~.R.",
"C.k.i.r.t.3.H n V *.t.m.1XlX8X{ g.c.0.' [ +.#.2X2XQ r 8 Z U @.0XwX8X[.U.R.3.P 1.0.(.#X`.!.!..XOX`.Q.",
"k.z.u.3.e.e.J m F =.3.d.,X0X5X} w.x.r.6.@.+.<X1X,X( f W Y 4.f.<X&.%.} M.B.L H Y l.'.~..X!.R.`.@XoX.X",
"S.c.h.3.e.i.2.=.;.2.4.] X.%.&.[ 6.g.d.^ ( o.<X1X<X,X1X6Xd.P I ' O./ ( [ v.g.7.N.(.).!.'.F.x.(.;XXX.X",
"I.D.x.3.2.2.=.=.=.3.q.T ( X.X.[ T d.^ s i E X.<X,X1X7X1XU b x G ` $.%.O.} 6X[.|.^.c.I.c.e.h.^.@X`.=X",
"A.s.u.0.t.H m V K t.y.5.^ X.X.[ ` ! s t q ; a [ ,X4X8X@.9 , 4 c A / X.$.&.0X3X].h.1.h.q.P 8.H.R.W.*X",
"C.p.8.h.H.7.4.q.h.H.c.5.^ ( o.%. .j e # q q f $.4X7X7X .* X < z Z ` ( %.&.2X%.V.c.e.8.8.-.e.h.y.i.h.",
"P.J.q.y.l.H.}.J.H./.N.6.^ ( 4X0X( k e . q e / 4X8X3X+.g e q * 8 6.M.b.( O.! ~ v.R.A.B.H.p.3.=.H P <.",
"x.y.g.T.H.Z._.H.p.Y.B.w.] { 8XkX%.g > # # r ~ o.o. .h p e r w e A M.M.U 0 p f T B.R.`.oXc.i.-.H ;.2.",
"P.S./.#X^.S./.I.L.}. X Xn.,X2X5X! ; * w r i g j ~ ~ h p t r r # - ) m.g.A 9 9 W m.R.XX=XU.h.u.h.x.h.",
":XXX~.XX!.R..X~.~.oXaXeX<X ./ g 9 * t t r y s h l k h f t w * = - > A 5.) B f ) B.R.XX=X#XS.j.F.G.D.",
"@X.X~.).I.I.~.!.I.!.;X6X . .0 O o * t r t y t h k Q h E a e % % - - - 0 G Y ,.g.R.R.XXoX=X).F.A.x.x.",
"R.XX@XXXC.S.!.W.L.L.#X6Xf._ 7 . o & * * * e > d j k h W T ) B = - : ; 6 5.c.^.}.@XXXQ.~.@X=X~.W.`._.",
"Q..X@XXXE.~..XoXI.I./.J.a.q.U o $ o o $ $ & : f g k g W m.{.d.0 - - - A y.R.;XfXdX;X).!.OX=X`.oX@X#X",
".X~.~.!.~.).).@XoXXXL.t.2.t.4.< $ X X X % = 7 B R h h W V.*Xg.0 : - : 5.C.D.*XhXsX$X).R.E.oXXXXX~.~.",
"@X@XE.I.L.c.^.$X;X}.h.;.=.2.A = $ $ % $ < < c G T W E {  X/.Y : & : 3 5.p.h._.dX#XE.E.k.t.S.).oXOX~.",
"a.^._.+X^.N.(.$X_.S.1.V n N 8 = - & - 3 c S 5.l.g.6.) M.`.x.Z o $ & = Z K I T.sX'.s.8.-.2.x.Q..XOXOX",
"V k.#XsX%X#X#X.XF.u.;.V N 7 = - ; : B Y q.p.k.l.p.w.V.].L.1.7 o o o o 4 m L {.dXT.<.:.2.i.D.R.Q.@X;X",
"c 9.#XdXiX:X$X.XL.x.j.7.B @ $ % & 3 L p.k.B.y.=.7.T.}.W.A.K , . . o , 4 M 8. XdX^.t.t.t.3.u.x.L.@X;X",
"b ,.E.;XdX:X$XXXQ.R.D.4.,   X o $ < N q.4.a.9.I m.}.~.A.8.N < . . @ 1 c 5.K.#X:X(.u.<.K V *.u.F.XX).",
"4.g.!.@X:XoX!.L.F./.g.G O   . . < v z V n J I w.^.~.C.2.F c @ . o < 5 V B.oX`.@XY.7.D b x ;.h.G.Q.Q.",
"D.W.~.E.L.F.j.u.u.x.y.v O . . O 1 z 2 5 x x L T.oXF.t.P x 4   . o 3 N -.c.).XX;X|.y.J M n =.x.F.I.R.",
"F.A.c.i.2.u.i.2.>.1.G 4   . O , 2 2 2 z b b ,.|.OXA.2.J m 5     o o 0 9.x.E.$XdX%Xp.:.4.V -.H.L.D.A.",
"h.h.j.-.m J 3.2.>.5.L +   . + 1 2 2 5 x J S 9.#X'.A.u.y.7.7     X o @ 0 U H.;XdX%Xs.8.*.V 4.c.F.F.D.",
"3.t.t.F x M ;.2.<.Y 7 o o o O 1 5 z x L N.q.B.uXOXF.j.U.N.Z @ @ @ 3 3 = 0 d.oX:X|.x.s.:.*.a.x.c.R.'.",
"t.u.1.K M H ;.<.J N @ + O O + 1 2 z x I P.N.{.iXXXR.c.c.U.v.d.w.9.9.9.6.7.c.I.L.E.(.P.c.B.{.(.J.`.=X",
"u.j.g.1.H =.<.;.M 5 , , 6 , 7 M n c z N N.{.*X`.R.j.j.D.!./.R.R.R.R.L.D.s.i.i.i.z._.@X@X;XsXdXiXsXsX",
"=.<.<.<.<.t.<.H S x 5 z n S =.r.1.-.J 4.T.:X=X!.A.e.i.x.C.x.j.A.R.D.h.t.3.e.e.u.S.~.@X:X#X=XdXjXfXdX",
"b b b M <.c.h.P S b 5 z x H <.2.=.3.c.(.:X*XE.F.D.k.A.A.t.2.1.1.3.7.1.3.s.j.j.D.!.~.@X;XoXoXaXdX;X=X",
"5 5 5 z -.h.i.3.H M x b P <.<.P F q.`.;XiX'.k.x.}.;X*XF.h.r.1.-.<.<.3.k.I.G.G.I.Q.Q.~..X+X:XfXdX*X/.",
"5 5 2 z *.1.K *.=.=.=.8.h.3.2.-.w.Y.;XsX;X).A.L.;XjX#Xl.x.H.J.H.h.0.x.D.D.h.h.j.A.F.x.c.@XfXjXjX;XU.",
"z z 5 z P =.S V P 2.s.C.A.j.z.U.).oX;X-X@XQ.F.XXsXhX*XB.K.#XiX-XF.x.R.I.h.2.3.t.3.t.P I Y.fXhXhX:XU."
};
