/* XPM */
static char *a54405b23fc246fec434dd3fc2ee3df95KCsvOUHNHUt2xyS[] = {
/* columns rows colors chars-per-pixel */
"50 50 233 2 ",
"   c #09161D",
".  c #0A1A22",
"X  c #021E3C",
"o  c #0E2223",
"O  c #14282B",
"+  c #04213E",
"@  c #0C2838",
"#  c #122C38",
"$  c #11323D",
"%  c #062746",
"&  c #0B2F4D",
"*  c #173646",
"=  c #1B3D4C",
"-  c #0B3556",
";  c #183D57",
":  c #243C49",
">  c #0D3E63",
",  c #1D414A",
"<  c #1E4355",
"1  c #1D445C",
"2  c #23434B",
"3  c #2B474C",
"4  c #224554",
"5  c #284B58",
"6  c #2B5A5C",
"7  c #32525D",
"8  c #2E635E",
"9  c #1A4D6B",
"0  c #184F73",
"q  c #19547C",
"w  c #224A66",
"e  c #29596A",
"r  c #375966",
"t  c #234D75",
"y  c #244F78",
"u  c #265376",
"i  c #2A5C76",
"p  c #265379",
"a  c #295878",
"s  c #2A5B7C",
"d  c #2E6665",
"f  c #316C65",
"g  c #36606D",
"h  c #35726E",
"j  c #3B766D",
"k  c #2D6476",
"l  c #2E667A",
"z  c #2F6978",
"x  c #376576",
"c  c #316C76",
"v  c #316D7A",
"b  c #337277",
"n  c #377976",
"m  c #34737A",
"M  c #367A79",
"N  c #387E7B",
"B  c #405E6A",
"V  c #43756D",
"C  c #487377",
"Z  c #3B847A",
"A  c #3D8B7B",
"S  c #428C7D",
"D  c #185985",
"F  c #165F90",
"G  c #305D81",
"H  c #1B6593",
"J  c #2D6384",
"K  c #29668A",
"L  c #326585",
"P  c #396184",
"I  c #336C83",
"U  c #316B8B",
"Y  c #377688",
"T  c #276D96",
"R  c #2D739C",
"E  c #397895",
"W  c #2877A6",
"Q  c #337CA7",
"!  c #2A7EB0",
"~  c #457687",
"^  c #507483",
"/  c #427B97",
"(  c #3D8384",
")  c #3E8D81",
"_  c #3D878A",
"`  c #3D8496",
"'  c #3684B0",
"]  c #3B89B5",
"[  c #3689B9",
"{  c #428E83",
"}  c #47858A",
"|  c #418E8C",
" . c #518B8C",
".. c #439084",
"X. c #41928B",
"o. c #4A968C",
"O. c #428592",
"+. c #44839C",
"@. c #478998",
"#. c #578996",
"$. c #439593",
"%. c #4C9B93",
"&. c #469A9C",
"*. c #489898",
"=. c #5A999B",
"-. c #67909B",
";. c #53A29C",
":. c #478AA4",
">. c #538DA4",
",. c #479CA1",
"<. c #499EA4",
"1. c #4595AA",
"2. c #4996A8",
"3. c #4A9CAC",
"4. c #589AA7",
"5. c #458DB4",
"6. c #4B95BC",
"7. c #5399B8",
"8. c #6B93A7",
"9. c #6D98AF",
"0. c #4BA1A6",
"q. c #4AA1AB",
"w. c #5AA9A7",
"e. c #55AAAC",
"r. c #4CA5B4",
"t. c #4EA7B7",
"y. c #4EA9BB",
"u. c #58A6B5",
"i. c #55ACB3",
"p. c #52ACBC",
"a. c #5AADBD",
"s. c #5AB1BB",
"d. c #67A7A7",
"f. c #68B1AA",
"g. c #67A7B9",
"h. c #63ABBA",
"j. c #74A8BB",
"k. c #67B7BA",
"l. c #79B3B6",
"z. c #6FC2BE",
"x. c #368EC0",
"c. c #3C96C8",
"v. c #3F9CD0",
"b. c #4B9BC7",
"n. c #559DC0",
"m. c #419ED1",
"M. c #59A8C5",
"N. c #57B1C1",
"B. c #5CB5C3",
"V. c #5FB8C5",
"C. c #47A4D7",
"Z. c #4CAADD",
"A. c #56ACD8",
"S. c #58B1DF",
"D. c #67A8C6",
"F. c #6CAFCF",
"G. c #62B4C2",
"H. c #63BBC5",
"J. c #6CBBC4",
"K. c #63BDC9",
"L. c #6ABECA",
"P. c #77B7C8",
"I. c #7CBAD3",
"U. c #51AFE0",
"Y. c #5AB4E2",
"T. c #63BAE5",
"R. c #68BDE7",
"E. c #6BC2C7",
"W. c #66C1CC",
"Q. c #6CC3CC",
"!. c #75C8C6",
"~. c #73C5CD",
"^. c #7ACDCD",
"/. c #6EC6D0",
"(. c #6EC8D2",
"). c #73CBD3",
"_. c #77CBD2",
"`. c #7BD2D5",
"'. c #7AD3D9",
"]. c #74C5EB",
"[. c #75C6ED",
"{. c #7BC9ED",
"}. c #87959B",
"|. c #8B9FA3",
" X c #85AFB0",
".X c #85B6B5",
"XX c #A9B7B7",
"oX c #83BDC6",
"OX c #91BBCD",
"+X c #A3BFCA",
"@X c #89C4CA",
"#X c #96C9CE",
"$X c #88CBD3",
"%X c #82D5D9",
"&X c #84DBDE",
"*X c #89D8DC",
"=X c #97D5D9",
"-X c #A8CBD1",
";X c #A8D8D7",
":X c #BAD9D9",
">X c #85CDEC",
",X c #86DEE0",
"<X c #9CDCE2",
"1X c #82CEF1",
"2X c #85D1F2",
"3X c #8CD6F4",
"4X c #8FD8F5",
"5X c #92DAF6",
"6X c #95DDF9",
"7X c #A8DAE1",
"8X c #B5DEE3",
"9X c #8AE2E2",
"0X c #97E3E6",
"qX c #9BE2E4",
"wX c #A3E5E6",
"eX c #A8E6E6",
"rX c #ADE9EA",
"tX c #B6E8EA",
"yX c #BBEBEC",
"uX c #BEF1F0",
"iX c #C3DDDB",
"pX c #C2E0DB",
"aX c #C7EAEC",
"sX c #D9E9EC",
"dX c #CEEEF0",
"fX c #C4F1F0",
"gX c #CCF2F2",
"hX c #D3F4F5",
"jX c #DBF5F5",
"kX c #DBF8F8",
"lX c #E4F7F7",
"zX c #ECFBFB",
"xX c #F2FDFD",
/* pixels */
"6X6X6X6X6X6X5XOXj.j.C : : O o o o 7 8.g.j.D.j.j.P.j.7.:.Q R R R R K K 4 O o O O O     : >.7.7.{.].{.",
"6X6X6X6X6X5XI.#.B r #..X@X=.Z n j 8 2 2 3 3 3 : : : : * * * * * * # & 4 8 v Y Y c 4 w w r 5 x g.>XR.",
"6X6X5X6X4X$X>.8.P.j.w.h.@X$X^.E.0.Z f 8 6 8 6 w ; ; 4 1 4 4 ; ; < < 4 w u s Y | E L U :.4.g. .r I.1X",
"5X5X5X6X2X^ -.7XqXP.+.J E u.`.`.E.e.o...Y I L L P L /  .#. . .} } Y Y l s i m $.e.h.J.Q.'.'.*.5 D.3X",
"[.[.{.4XoX^ 9.7X*Xu.L G U ,.e.k.'.!.k.!.~.J.J.J.J.P.$X:X:XiX:XoXu.k.!.u.:.Y ` r.!.aXtX,X).V.` 5 D.1X",
"m.m.Z.D.-.|.#X>X).p.1.3.<.;.w.z.).a.4.~.`.`.`._.!.eXgXkXzXzXxXdX<X,X&XG.` L E u.#XlXhX*XV.N._ 5 D.5X",
"m.m.[ x }.iX=X/.(.).`.%X=X;XpXwX`.p.:.+./ / >.@.>.$XwXrXtXhXlXjXgX<X~.1.L p G 9.dXzXgX%XV.K.+.7 I.5X",
"Z.Y.5.r XXfXtX=X*X0XtXgXfXdXfXwX&XQ.p.1.1.3.h.D.h.L.(.'.9XqX=X$X$XL.N.1.E L -.iXlXdX<X).K.).@.5 D.1X",
"T.A.^ }.sXhXdXtXrXfXjXlXkXuXwX9X9X'.(./.(.).'.,X,X'.'.'.9X9X'.).(.K.p.s.P.#X:XsXyX$Xk.i.H.).@.4 5.A.",
"{.D.B XXlXfXrXqXqXrXrXrXeX9X9X,X'.W.W.W.W.W.W.(.%X,X,X,X9X'.(.W.H.Q.(.).eX:X@X.Xl.@X@Xu.B.).@.4 Q [ ",
"A.~ -.-X=X*X).W.W.E.k.w.f.k.W.W.B.y.y.y.r.y.y.p.H.K.W.W.W.W.p.0.&.;.k.).*X$Xf...d.:X8XG.V.!.Z 3 g.A.",
"u.7 -.P.B.V.p.q.&.&.X.S A ) &.` &.&.&.$.$.$.$.&.,.r.y.p.y.y.0.) A A X.i.E._.s.o..XlXyXW.(.!.j 3 F.3X",
"n.5 n &.r.p.y.3.&.&.&.&.,.&.0.0.&.o.A A A ....A ) q.N.y.b.y.0.) A A ) &.B.W.w.d.:XlXpX~.'.^.j 3 oX6X",
"7.5 d $.r.N.B.e.&.&.<.y.y.y.B.W.Q.s.X.) w..Xf.S ) r.y.y.y.y.p.) ) ) ) $.q.i.*.l.aXjX-Xh.`.!.j 3 I.6X",
"D.3 f <.y.H.k.%.A A &.y.y.b.B.).'.^.w.0.k.qX^.%.0.B.N.y.y.y.q.) $.0.$.) &.r.&.l.wXyX-X#.E.!.j 3 P.6X",
"F.7 f 3.y.i.%.M b Z &.y.y.y.y.V.).(.H.p.N.(.K.0.i.(.B.y.y.r.) ) &.r.&.A X.0.<.f.,XrX+X/ L.!.j 3 F.6X",
"t.< d q.t.&.A k k Z &.y.y.y.y.p.p.p.q.q.i.t.0.0.H.z.p.y.y.$.A ) &.0.X.A ) $.<.w.,XqX@X@.^.!.j 2 D.2X",
"] , d q.t._ M k c A &.y.r.0.&.&.,.) ) ) &.&.A %.z.;.q.y.y.) A A $.X.A A A $.&.;.`.9Xk.>._.E.j = b.U.",
"] , f q.t._ k u b A ,.r.,.) A A ) A A A A A A f.z.;.q.y.y.$.A A A A A A A _ $.&.L.,Xk.>.E.i.f 2 ' v.",
"R = h t.p._ k q c ) ,.r._ A A A A A A A A A %.^.^.;.q.y.q.) A A Z A A A A ) A &.H.,Xh.:.L.i.f 2 5.C.",
"T = Y y.y.) m i M A ` 0.A A A A A A A A A A %.^.`.;.q.r.$.A A A A A A A A A A $.B.`.D.>.L.i.f 2 b.U.",
"Q = _ N.s.` v b Z A &.&.A A A A A A A A A A %.^.z.&.q.0.) A A A A A Z n n N A $.i.W.u.@.L.0.8 g b.A.",
"' , ` Q.B._ z b A A ) &.S A A A A A A A A A %.z.;.o.<.$.A A A A A Z z u u c M { e.a.:.+.L.@.2 5.Y.R.",
"W * ` ).V._ c Z A A ) A A A A A A A A A A A %.z.;.0.q.%.o.A A A A N k t t u v $.i.3.G E E.O., ' A.R.",
"R = O.).B.$.Z Z A A A A A A A S S S S S S S %.f.%.q.0.o.S S S S N l p t t p l $.G.u.U >.Q._ * H W [ ",
":.2 ` ).B.o.A A A A A A A A A S S S S S S S S o.X.&.%.S S S ..S m a t t t u v $.H.h.+.~.%X} $ - q F ",
"T * O.(.V.$.A A A A ) A A A A A S S A S S S A A A ..S A S S S S c u t t u v Z *.H.u.>.;X;XC @ ; D H ",
":.; O.).V.X.A A A A &.$.A A A A A S A A A A A A A A A A A A A A k t t u l Z $.r.H.g.8.aXpXV $ T x.! ",
"D.5 _ ).V.$.S A A A &.&.A A A A A A A A A A A ) &.S A A A A A Z c u t u c ) &.p.W.h.9.sXpXV * ' v.c.",
"6.4 O.).V.X.A A A ) &.&.A A A A A A Z A A A A $.0.A A A A A A A N i t t z $.q.H.'.h.8.sXpXV = W x.x.",
"] < O.(.V.$.A A A $.q.&.A A A A A M h Z A A ) 0.q.) A A A A A A Z c t u v $.y.W.&XD.9.sX:XV ; 5.A.A.",
"[ 5 @.).V.0.X.A A &.t.&.A A A A A b k Z A A ) r.y.) A A A A A Z Z v u l _ ,.y.Q.&X%X;XjX#Xj = n.T.R.",
"5.5 @.K.B.y.$.A ) ,.y.&.A A A A A b k N A Z ) t.q.) ) A S Z c k M M v @.k.k.N.W.'.qXhXgX!.j 4 6.U.Z.",
"7.6 @.N.K.B.$.) $.r.r.&.A A A A n k k Z A A ) 0.` ) A A Z c u u m Z { k.&XQ.p.K.!.#XlXhXl.6 E A.Y.Z.",
"U 4 Y B._.K.q.o.&.y.y.&.) ) A A n u k Z A A ) 0.) Z Z M c u u z A ..w.=XwX).q.e.e.l.jXhXd.4 ] Y.Y.R.",
"- * ` /.wX&Xs.$._ q.y.q.0.) A A b 0 i Z A A ) 0._ c z z u u z Z $.e.@XyXtX).0.&.r.k.fXyX=.1 [ Z.Y.[.",
"@ * O.*XgXwXH.$.) ,.r.q.q.,.A A b u k Z A A X.&.Y i b i y l S w.!.%X0XfXyX).,.$.y.G.&XoXe 9 ' v.T.[.",
"+ * =.tXjXrX_.e.) ) &.&.q.&.A A b i b Z A ) &.] l q b k s O.f.=XyXfXfXhXtX).0.X.0.i.f.C # 0 W v.U.A.",
"u 3  XlXzXgXqXH.,.) ,.q.e.` A Z k k Z Z M _ 3.3.Y b M v :.OXtXjXxXxXzXhX=XH.,.X.0.r.( , X D [ c.Z.C.",
"W 7 XXxXxXzXrXL._ ] r.y.,.) _ b u k Z M c _ r.r.) A v Y #XjXzXxXxXxXzXyX).y.&.$.s.s.m @ % D x.c.m.m.",
"Q 5  XlXxXzXfX$X` E 1.q.$._ _ Z c b M c i _ r.r.$.( z @.:XlXzXxXxXzXhX@Xr.1.` $.s.q.e 9 - D x.v.c.x.",
"T 5 d.fXlXxXzX7Xr.U U ` ` ( _ A N c k u i v E ` E I v / |.OX-X7X7X7X$X>.U U Y 2.@.k 0 0 9 K [ v.m.c.",
"F w ~ P.gXzXzXrXH.E p L U K _ m l u u t t p p p p a a a G G / 7.a.7.3.:.L u L E i 4 W D q Q [ [ m.T.",
"W K = } #XtXyXwXL.E u t u y p p t t t t t t t t t t t t t t y E E L R E L t y w 1 I 7.] 6.F.A.b.U.R.",
"W W w k +.>.u.k.>.U t t t t t t t t t t t t t y t p t t t t t y p y p p p p t & ; n.T.T.R.3X3X>X3X1X",
"D F q < ; 0 l I I a t p J U J k l U U U K U K L U / / / / / G t y y y s U K u = G v.T.1XR.R.3X5X5X5X",
"& - & & 1 1 c $.=.8.-.-.f.j.g.;.w.a.a.a.B.N.B.P.@X$X_.L.Q.K.:.U U K L U I m e K b.C.T.R.Y.Y.1X3X].R.",
"X X % % 0 9 r  . X+X+X-X:X-X X=.=.;.8.4.d.d._.7X8X7XP.N.3.5.:.Y m I I e < < K x.C.C.U.U.T.{.3X3XR.C.",
"X X X % D q & * 5 r x C  .C 4 : 2 5 7 r r r O.#.=.#.` Y i 9 w 4 < = < K Q R W x.x.c.x.[ Y.3X6X5X[.b.",
"% + X % D D > & +   . . . 1 K ' 5.6.M.g.7.U * @ O O O O .   O ~ Q W ] [ ! H H W W W D q M.3X5X5X>XC."
};
